<mxfile host="app.diagrams.net" modified="2024-02-09T14:23:39.931Z" agent="Mozilla/5.0 (X11; Linux x86_64; rv:109.0) Gecko/20100101 Firefox/115.0" etag="dvWfIDnjOglplGEEhVB4" version="23.1.2" type="github">
  <diagram name="Page-1" id="mNH2CRQtdClMF56qCHOm">
    <mxGraphModel dx="1658" dy="864" grid="1" gridSize="10" guides="1" tooltips="1" connect="1" arrows="1" fold="1" page="1" pageScale="1" pageWidth="827" pageHeight="1169" math="0" shadow="0">
      <root>
        <mxCell id="0" />
        <mxCell id="1" parent="0" />
        <mxCell id="hqT0htGrqEQ3Cklthxn1-6" style="edgeStyle=orthogonalEdgeStyle;rounded=0;orthogonalLoop=1;jettySize=auto;html=1;entryX=0.5;entryY=0;entryDx=0;entryDy=0;" edge="1" parent="1" source="i-FvbA_S1ePLVYv7-AD9-1" target="hqT0htGrqEQ3Cklthxn1-1">
          <mxGeometry relative="1" as="geometry" />
        </mxCell>
        <mxCell id="i-FvbA_S1ePLVYv7-AD9-1" value="Start" style="ellipse;whiteSpace=wrap;html=1;" parent="1" vertex="1">
          <mxGeometry x="354" y="150" width="96" height="60" as="geometry" />
        </mxCell>
        <mxCell id="hqT0htGrqEQ3Cklthxn1-7" style="edgeStyle=orthogonalEdgeStyle;rounded=0;orthogonalLoop=1;jettySize=auto;html=1;entryX=0.5;entryY=0;entryDx=0;entryDy=0;" edge="1" parent="1" source="hqT0htGrqEQ3Cklthxn1-1" target="hqT0htGrqEQ3Cklthxn1-2">
          <mxGeometry relative="1" as="geometry" />
        </mxCell>
        <mxCell id="hqT0htGrqEQ3Cklthxn1-1" value="&lt;div&gt;A character&amp;nbsp;&lt;/div&gt;&lt;div&gt;is input&lt;/div&gt;" style="shape=parallelogram;perimeter=parallelogramPerimeter;whiteSpace=wrap;html=1;fixedSize=1;" vertex="1" parent="1">
          <mxGeometry x="342" y="250" width="120" height="60" as="geometry" />
        </mxCell>
        <mxCell id="hqT0htGrqEQ3Cklthxn1-8" style="edgeStyle=orthogonalEdgeStyle;rounded=0;orthogonalLoop=1;jettySize=auto;html=1;entryX=0.5;entryY=0;entryDx=0;entryDy=0;" edge="1" parent="1" source="hqT0htGrqEQ3Cklthxn1-2" target="hqT0htGrqEQ3Cklthxn1-3">
          <mxGeometry relative="1" as="geometry" />
        </mxCell>
        <mxCell id="hqT0htGrqEQ3Cklthxn1-10" style="edgeStyle=orthogonalEdgeStyle;rounded=0;orthogonalLoop=1;jettySize=auto;html=1;entryX=0.5;entryY=0;entryDx=0;entryDy=0;" edge="1" parent="1" source="hqT0htGrqEQ3Cklthxn1-2" target="hqT0htGrqEQ3Cklthxn1-4">
          <mxGeometry relative="1" as="geometry" />
        </mxCell>
        <mxCell id="hqT0htGrqEQ3Cklthxn1-2" value="Is it a control character?" style="rhombus;whiteSpace=wrap;html=1;" vertex="1" parent="1">
          <mxGeometry x="346" y="360" width="112" height="80" as="geometry" />
        </mxCell>
        <mxCell id="hqT0htGrqEQ3Cklthxn1-9" style="edgeStyle=orthogonalEdgeStyle;rounded=0;orthogonalLoop=1;jettySize=auto;html=1;entryX=0.5;entryY=0;entryDx=0;entryDy=0;" edge="1" parent="1" source="hqT0htGrqEQ3Cklthxn1-3" target="hqT0htGrqEQ3Cklthxn1-5">
          <mxGeometry relative="1" as="geometry" />
        </mxCell>
        <mxCell id="hqT0htGrqEQ3Cklthxn1-3" value="Append character to working string" style="rounded=0;whiteSpace=wrap;html=1;" vertex="1" parent="1">
          <mxGeometry x="342" y="490" width="120" height="60" as="geometry" />
        </mxCell>
        <mxCell id="hqT0htGrqEQ3Cklthxn1-11" style="edgeStyle=orthogonalEdgeStyle;rounded=0;orthogonalLoop=1;jettySize=auto;html=1;entryX=1;entryY=0.5;entryDx=0;entryDy=0;" edge="1" parent="1" source="hqT0htGrqEQ3Cklthxn1-4" target="hqT0htGrqEQ3Cklthxn1-5">
          <mxGeometry relative="1" as="geometry">
            <Array as="points">
              <mxPoint x="580" y="630" />
            </Array>
          </mxGeometry>
        </mxCell>
        <mxCell id="hqT0htGrqEQ3Cklthxn1-4" value="Perform specific command function" style="rounded=0;whiteSpace=wrap;html=1;" vertex="1" parent="1">
          <mxGeometry x="520" y="490" width="120" height="60" as="geometry" />
        </mxCell>
        <mxCell id="hqT0htGrqEQ3Cklthxn1-5" value="&lt;div&gt;End&lt;/div&gt;" style="ellipse;whiteSpace=wrap;html=1;" vertex="1" parent="1">
          <mxGeometry x="354" y="600" width="96" height="60" as="geometry" />
        </mxCell>
      </root>
    </mxGraphModel>
  </diagram>
</mxfile>
